G04 EAGLE Gerber RS-274X export*
G75*
%MOMM*%
%FSLAX34Y34*%
%LPD*%
%INSoldermask Top*%
%IPPOS*%
%AMOC8*
5,1,8,0,0,1.08239X$1,22.5*%
G01*
%ADD10C,3.505200*%
%ADD11R,1.203200X1.303200*%
%ADD12C,0.505344*%
%ADD13R,0.753200X1.003200*%
%ADD14R,1.303200X1.203200*%
%ADD15R,1.727200X0.965200*%
%ADD16C,2.082800*%
%ADD17R,4.803200X1.203200*%
%ADD18R,3.603200X1.803200*%
%ADD19C,1.203200*%
%ADD20R,0.833200X1.033200*%
%ADD21C,1.270000*%
%ADD22C,1.703200*%


D10*
X25400Y25400D03*
X228600Y25400D03*
X228600Y177800D03*
X25400Y177800D03*
D11*
X190500Y186300D03*
X190500Y169300D03*
D12*
X181290Y172520D02*
X174310Y172520D01*
X181290Y172520D02*
X181290Y165540D01*
X174310Y165540D01*
X174310Y172520D01*
X174310Y170340D02*
X181290Y170340D01*
X181290Y190060D02*
X174310Y190060D01*
X181290Y190060D02*
X181290Y183080D01*
X174310Y183080D01*
X174310Y190060D01*
X174310Y187880D02*
X181290Y187880D01*
D13*
X117500Y89600D03*
X127000Y89600D03*
X136500Y89600D03*
X136500Y113600D03*
X117500Y113600D03*
X127000Y113600D03*
D14*
X135500Y127000D03*
X118500Y127000D03*
D11*
X88900Y55000D03*
X88900Y72000D03*
X107950Y72000D03*
X107950Y55000D03*
D14*
X143900Y54610D03*
X160900Y54610D03*
X143900Y38100D03*
X160900Y38100D03*
X143900Y72390D03*
X160900Y72390D03*
D11*
X127000Y55000D03*
X127000Y72000D03*
D15*
X99060Y184150D03*
X154940Y184150D03*
X99060Y146050D03*
X154940Y146050D03*
D16*
X139700Y12700D03*
X165100Y12700D03*
X88900Y12700D03*
X114300Y12700D03*
D17*
X70020Y91600D03*
X70020Y111600D03*
D18*
X18020Y67600D03*
X18020Y135600D03*
D16*
X25400Y114300D03*
X25400Y88900D03*
X76200Y165100D03*
X76200Y190500D03*
X228600Y88900D03*
X228600Y114300D03*
D17*
X183980Y111600D03*
X183980Y91600D03*
D18*
X235980Y135600D03*
X235980Y67600D03*
D19*
X245110Y194310D03*
X8890Y8890D03*
D20*
X109290Y38100D03*
X86290Y38100D03*
D10*
X284480Y25400D03*
X487680Y25400D03*
X487680Y177800D03*
X284480Y177800D03*
D11*
X449580Y186300D03*
X449580Y169300D03*
D12*
X440370Y172520D02*
X433390Y172520D01*
X440370Y172520D02*
X440370Y165540D01*
X433390Y165540D01*
X433390Y172520D01*
X433390Y170340D02*
X440370Y170340D01*
X440370Y190060D02*
X433390Y190060D01*
X440370Y190060D02*
X440370Y183080D01*
X433390Y183080D01*
X433390Y190060D01*
X433390Y187880D02*
X440370Y187880D01*
D13*
X376580Y89600D03*
X386080Y89600D03*
X395580Y89600D03*
X395580Y113600D03*
X376580Y113600D03*
X386080Y113600D03*
D14*
X394580Y127000D03*
X377580Y127000D03*
D11*
X347980Y55000D03*
X347980Y72000D03*
X367030Y72000D03*
X367030Y55000D03*
D14*
X402980Y54610D03*
X419980Y54610D03*
X402980Y38100D03*
X419980Y38100D03*
X402980Y72390D03*
X419980Y72390D03*
D11*
X386080Y55000D03*
X386080Y72000D03*
D15*
X358140Y184150D03*
X414020Y184150D03*
X358140Y146050D03*
X414020Y146050D03*
D16*
X398780Y12700D03*
X424180Y12700D03*
X347980Y12700D03*
X373380Y12700D03*
D17*
X329100Y91600D03*
X329100Y111600D03*
D18*
X277100Y67600D03*
X277100Y135600D03*
D16*
X284480Y114300D03*
X284480Y88900D03*
X335280Y165100D03*
X335280Y190500D03*
X487680Y88900D03*
X487680Y114300D03*
D17*
X443060Y111600D03*
X443060Y91600D03*
D18*
X495060Y135600D03*
X495060Y67600D03*
D19*
X504190Y194310D03*
X267970Y8890D03*
D20*
X368370Y38100D03*
X345370Y38100D03*
D10*
X543560Y25400D03*
X746760Y25400D03*
X746760Y177800D03*
X543560Y177800D03*
D11*
X708660Y186300D03*
X708660Y169300D03*
D12*
X699450Y172520D02*
X692470Y172520D01*
X699450Y172520D02*
X699450Y165540D01*
X692470Y165540D01*
X692470Y172520D01*
X692470Y170340D02*
X699450Y170340D01*
X699450Y190060D02*
X692470Y190060D01*
X699450Y190060D02*
X699450Y183080D01*
X692470Y183080D01*
X692470Y190060D01*
X692470Y187880D02*
X699450Y187880D01*
D13*
X635660Y89600D03*
X645160Y89600D03*
X654660Y89600D03*
X654660Y113600D03*
X635660Y113600D03*
X645160Y113600D03*
D14*
X653660Y127000D03*
X636660Y127000D03*
D11*
X607060Y55000D03*
X607060Y72000D03*
X626110Y72000D03*
X626110Y55000D03*
D14*
X662060Y54610D03*
X679060Y54610D03*
X662060Y38100D03*
X679060Y38100D03*
X662060Y72390D03*
X679060Y72390D03*
D11*
X645160Y55000D03*
X645160Y72000D03*
D15*
X617220Y184150D03*
X673100Y184150D03*
X617220Y146050D03*
X673100Y146050D03*
D16*
X657860Y12700D03*
X683260Y12700D03*
X607060Y12700D03*
X632460Y12700D03*
D17*
X588180Y91600D03*
X588180Y111600D03*
D18*
X536180Y67600D03*
X536180Y135600D03*
D16*
X543560Y114300D03*
X543560Y88900D03*
X594360Y165100D03*
X594360Y190500D03*
X746760Y88900D03*
X746760Y114300D03*
D17*
X702140Y111600D03*
X702140Y91600D03*
D18*
X754140Y135600D03*
X754140Y67600D03*
D19*
X763270Y194310D03*
X527050Y8890D03*
D20*
X627450Y38100D03*
X604450Y38100D03*
D10*
X802640Y25400D03*
X1005840Y25400D03*
X1005840Y177800D03*
X802640Y177800D03*
D11*
X967740Y186300D03*
X967740Y169300D03*
D12*
X958530Y172520D02*
X951550Y172520D01*
X958530Y172520D02*
X958530Y165540D01*
X951550Y165540D01*
X951550Y172520D01*
X951550Y170340D02*
X958530Y170340D01*
X958530Y190060D02*
X951550Y190060D01*
X958530Y190060D02*
X958530Y183080D01*
X951550Y183080D01*
X951550Y190060D01*
X951550Y187880D02*
X958530Y187880D01*
D13*
X894740Y89600D03*
X904240Y89600D03*
X913740Y89600D03*
X913740Y113600D03*
X894740Y113600D03*
X904240Y113600D03*
D14*
X912740Y127000D03*
X895740Y127000D03*
D11*
X866140Y55000D03*
X866140Y72000D03*
X885190Y72000D03*
X885190Y55000D03*
D14*
X921140Y54610D03*
X938140Y54610D03*
X921140Y38100D03*
X938140Y38100D03*
X921140Y72390D03*
X938140Y72390D03*
D11*
X904240Y55000D03*
X904240Y72000D03*
D15*
X876300Y184150D03*
X932180Y184150D03*
X876300Y146050D03*
X932180Y146050D03*
D16*
X916940Y12700D03*
X942340Y12700D03*
X866140Y12700D03*
X891540Y12700D03*
D17*
X847260Y91600D03*
X847260Y111600D03*
D18*
X795260Y67600D03*
X795260Y135600D03*
D16*
X802640Y114300D03*
X802640Y88900D03*
X853440Y165100D03*
X853440Y190500D03*
X1005840Y88900D03*
X1005840Y114300D03*
D17*
X961220Y111600D03*
X961220Y91600D03*
D18*
X1013220Y135600D03*
X1013220Y67600D03*
D19*
X1022350Y194310D03*
X786130Y8890D03*
D20*
X886530Y38100D03*
X863530Y38100D03*
D10*
X1061720Y25400D03*
X1264920Y25400D03*
X1264920Y177800D03*
X1061720Y177800D03*
D11*
X1226820Y186300D03*
X1226820Y169300D03*
D12*
X1217610Y172520D02*
X1210630Y172520D01*
X1217610Y172520D02*
X1217610Y165540D01*
X1210630Y165540D01*
X1210630Y172520D01*
X1210630Y170340D02*
X1217610Y170340D01*
X1217610Y190060D02*
X1210630Y190060D01*
X1217610Y190060D02*
X1217610Y183080D01*
X1210630Y183080D01*
X1210630Y190060D01*
X1210630Y187880D02*
X1217610Y187880D01*
D13*
X1153820Y89600D03*
X1163320Y89600D03*
X1172820Y89600D03*
X1172820Y113600D03*
X1153820Y113600D03*
X1163320Y113600D03*
D14*
X1171820Y127000D03*
X1154820Y127000D03*
D11*
X1125220Y55000D03*
X1125220Y72000D03*
X1144270Y72000D03*
X1144270Y55000D03*
D14*
X1180220Y54610D03*
X1197220Y54610D03*
X1180220Y38100D03*
X1197220Y38100D03*
X1180220Y72390D03*
X1197220Y72390D03*
D11*
X1163320Y55000D03*
X1163320Y72000D03*
D15*
X1135380Y184150D03*
X1191260Y184150D03*
X1135380Y146050D03*
X1191260Y146050D03*
D16*
X1176020Y12700D03*
X1201420Y12700D03*
X1125220Y12700D03*
X1150620Y12700D03*
D17*
X1106340Y91600D03*
X1106340Y111600D03*
D18*
X1054340Y67600D03*
X1054340Y135600D03*
D16*
X1061720Y114300D03*
X1061720Y88900D03*
X1112520Y165100D03*
X1112520Y190500D03*
X1264920Y88900D03*
X1264920Y114300D03*
D17*
X1220300Y111600D03*
X1220300Y91600D03*
D18*
X1272300Y135600D03*
X1272300Y67600D03*
D19*
X1281430Y194310D03*
X1045210Y8890D03*
D20*
X1145610Y38100D03*
X1122610Y38100D03*
D10*
X25400Y233680D03*
X228600Y233680D03*
X228600Y386080D03*
X25400Y386080D03*
D11*
X190500Y394580D03*
X190500Y377580D03*
D12*
X181290Y380800D02*
X174310Y380800D01*
X181290Y380800D02*
X181290Y373820D01*
X174310Y373820D01*
X174310Y380800D01*
X174310Y378620D02*
X181290Y378620D01*
X181290Y398340D02*
X174310Y398340D01*
X181290Y398340D02*
X181290Y391360D01*
X174310Y391360D01*
X174310Y398340D01*
X174310Y396160D02*
X181290Y396160D01*
D13*
X117500Y297880D03*
X127000Y297880D03*
X136500Y297880D03*
X136500Y321880D03*
X117500Y321880D03*
X127000Y321880D03*
D14*
X135500Y335280D03*
X118500Y335280D03*
D11*
X88900Y263280D03*
X88900Y280280D03*
X107950Y280280D03*
X107950Y263280D03*
D14*
X143900Y262890D03*
X160900Y262890D03*
X143900Y246380D03*
X160900Y246380D03*
X143900Y280670D03*
X160900Y280670D03*
D11*
X127000Y263280D03*
X127000Y280280D03*
D15*
X99060Y392430D03*
X154940Y392430D03*
X99060Y354330D03*
X154940Y354330D03*
D16*
X139700Y220980D03*
X165100Y220980D03*
X88900Y220980D03*
X114300Y220980D03*
D17*
X70020Y299880D03*
X70020Y319880D03*
D18*
X18020Y275880D03*
X18020Y343880D03*
D16*
X25400Y322580D03*
X25400Y297180D03*
X76200Y373380D03*
X76200Y398780D03*
X228600Y297180D03*
X228600Y322580D03*
D17*
X183980Y319880D03*
X183980Y299880D03*
D18*
X235980Y343880D03*
X235980Y275880D03*
D19*
X245110Y402590D03*
X8890Y217170D03*
D20*
X109290Y246380D03*
X86290Y246380D03*
D10*
X284480Y233680D03*
X487680Y233680D03*
X487680Y386080D03*
X284480Y386080D03*
D11*
X449580Y394580D03*
X449580Y377580D03*
D12*
X440370Y380800D02*
X433390Y380800D01*
X440370Y380800D02*
X440370Y373820D01*
X433390Y373820D01*
X433390Y380800D01*
X433390Y378620D02*
X440370Y378620D01*
X440370Y398340D02*
X433390Y398340D01*
X440370Y398340D02*
X440370Y391360D01*
X433390Y391360D01*
X433390Y398340D01*
X433390Y396160D02*
X440370Y396160D01*
D13*
X376580Y297880D03*
X386080Y297880D03*
X395580Y297880D03*
X395580Y321880D03*
X376580Y321880D03*
X386080Y321880D03*
D14*
X394580Y335280D03*
X377580Y335280D03*
D11*
X347980Y263280D03*
X347980Y280280D03*
X367030Y280280D03*
X367030Y263280D03*
D14*
X402980Y262890D03*
X419980Y262890D03*
X402980Y246380D03*
X419980Y246380D03*
X402980Y280670D03*
X419980Y280670D03*
D11*
X386080Y263280D03*
X386080Y280280D03*
D15*
X358140Y392430D03*
X414020Y392430D03*
X358140Y354330D03*
X414020Y354330D03*
D16*
X398780Y220980D03*
X424180Y220980D03*
X347980Y220980D03*
X373380Y220980D03*
D17*
X329100Y299880D03*
X329100Y319880D03*
D18*
X277100Y275880D03*
X277100Y343880D03*
D16*
X284480Y322580D03*
X284480Y297180D03*
X335280Y373380D03*
X335280Y398780D03*
X487680Y297180D03*
X487680Y322580D03*
D17*
X443060Y319880D03*
X443060Y299880D03*
D18*
X495060Y343880D03*
X495060Y275880D03*
D19*
X504190Y402590D03*
X267970Y217170D03*
D20*
X368370Y246380D03*
X345370Y246380D03*
D10*
X543560Y233680D03*
X746760Y233680D03*
X746760Y386080D03*
X543560Y386080D03*
D11*
X708660Y394580D03*
X708660Y377580D03*
D12*
X699450Y380800D02*
X692470Y380800D01*
X699450Y380800D02*
X699450Y373820D01*
X692470Y373820D01*
X692470Y380800D01*
X692470Y378620D02*
X699450Y378620D01*
X699450Y398340D02*
X692470Y398340D01*
X699450Y398340D02*
X699450Y391360D01*
X692470Y391360D01*
X692470Y398340D01*
X692470Y396160D02*
X699450Y396160D01*
D13*
X635660Y297880D03*
X645160Y297880D03*
X654660Y297880D03*
X654660Y321880D03*
X635660Y321880D03*
X645160Y321880D03*
D14*
X653660Y335280D03*
X636660Y335280D03*
D11*
X607060Y263280D03*
X607060Y280280D03*
X626110Y280280D03*
X626110Y263280D03*
D14*
X662060Y262890D03*
X679060Y262890D03*
X662060Y246380D03*
X679060Y246380D03*
X662060Y280670D03*
X679060Y280670D03*
D11*
X645160Y263280D03*
X645160Y280280D03*
D15*
X617220Y392430D03*
X673100Y392430D03*
X617220Y354330D03*
X673100Y354330D03*
D16*
X657860Y220980D03*
X683260Y220980D03*
X607060Y220980D03*
X632460Y220980D03*
D17*
X588180Y299880D03*
X588180Y319880D03*
D18*
X536180Y275880D03*
X536180Y343880D03*
D16*
X543560Y322580D03*
X543560Y297180D03*
X594360Y373380D03*
X594360Y398780D03*
X746760Y297180D03*
X746760Y322580D03*
D17*
X702140Y319880D03*
X702140Y299880D03*
D18*
X754140Y343880D03*
X754140Y275880D03*
D19*
X763270Y402590D03*
X527050Y217170D03*
D20*
X627450Y246380D03*
X604450Y246380D03*
D10*
X802640Y233680D03*
X1005840Y233680D03*
X1005840Y386080D03*
X802640Y386080D03*
D11*
X967740Y394580D03*
X967740Y377580D03*
D12*
X958530Y380800D02*
X951550Y380800D01*
X958530Y380800D02*
X958530Y373820D01*
X951550Y373820D01*
X951550Y380800D01*
X951550Y378620D02*
X958530Y378620D01*
X958530Y398340D02*
X951550Y398340D01*
X958530Y398340D02*
X958530Y391360D01*
X951550Y391360D01*
X951550Y398340D01*
X951550Y396160D02*
X958530Y396160D01*
D13*
X894740Y297880D03*
X904240Y297880D03*
X913740Y297880D03*
X913740Y321880D03*
X894740Y321880D03*
X904240Y321880D03*
D14*
X912740Y335280D03*
X895740Y335280D03*
D11*
X866140Y263280D03*
X866140Y280280D03*
X885190Y280280D03*
X885190Y263280D03*
D14*
X921140Y262890D03*
X938140Y262890D03*
X921140Y246380D03*
X938140Y246380D03*
X921140Y280670D03*
X938140Y280670D03*
D11*
X904240Y263280D03*
X904240Y280280D03*
D15*
X876300Y392430D03*
X932180Y392430D03*
X876300Y354330D03*
X932180Y354330D03*
D16*
X916940Y220980D03*
X942340Y220980D03*
X866140Y220980D03*
X891540Y220980D03*
D17*
X847260Y299880D03*
X847260Y319880D03*
D18*
X795260Y275880D03*
X795260Y343880D03*
D16*
X802640Y322580D03*
X802640Y297180D03*
X853440Y373380D03*
X853440Y398780D03*
X1005840Y297180D03*
X1005840Y322580D03*
D17*
X961220Y319880D03*
X961220Y299880D03*
D18*
X1013220Y343880D03*
X1013220Y275880D03*
D19*
X1022350Y402590D03*
X786130Y217170D03*
D20*
X886530Y246380D03*
X863530Y246380D03*
D10*
X1061720Y233680D03*
X1264920Y233680D03*
X1264920Y386080D03*
X1061720Y386080D03*
D11*
X1226820Y394580D03*
X1226820Y377580D03*
D12*
X1217610Y380800D02*
X1210630Y380800D01*
X1217610Y380800D02*
X1217610Y373820D01*
X1210630Y373820D01*
X1210630Y380800D01*
X1210630Y378620D02*
X1217610Y378620D01*
X1217610Y398340D02*
X1210630Y398340D01*
X1217610Y398340D02*
X1217610Y391360D01*
X1210630Y391360D01*
X1210630Y398340D01*
X1210630Y396160D02*
X1217610Y396160D01*
D13*
X1153820Y297880D03*
X1163320Y297880D03*
X1172820Y297880D03*
X1172820Y321880D03*
X1153820Y321880D03*
X1163320Y321880D03*
D14*
X1171820Y335280D03*
X1154820Y335280D03*
D11*
X1125220Y263280D03*
X1125220Y280280D03*
X1144270Y280280D03*
X1144270Y263280D03*
D14*
X1180220Y262890D03*
X1197220Y262890D03*
X1180220Y246380D03*
X1197220Y246380D03*
X1180220Y280670D03*
X1197220Y280670D03*
D11*
X1163320Y263280D03*
X1163320Y280280D03*
D15*
X1135380Y392430D03*
X1191260Y392430D03*
X1135380Y354330D03*
X1191260Y354330D03*
D16*
X1176020Y220980D03*
X1201420Y220980D03*
X1125220Y220980D03*
X1150620Y220980D03*
D17*
X1106340Y299880D03*
X1106340Y319880D03*
D18*
X1054340Y275880D03*
X1054340Y343880D03*
D16*
X1061720Y322580D03*
X1061720Y297180D03*
X1112520Y373380D03*
X1112520Y398780D03*
X1264920Y297180D03*
X1264920Y322580D03*
D17*
X1220300Y319880D03*
X1220300Y299880D03*
D18*
X1272300Y343880D03*
X1272300Y275880D03*
D19*
X1281430Y402590D03*
X1045210Y217170D03*
D20*
X1145610Y246380D03*
X1122610Y246380D03*
D10*
X25400Y441960D03*
X228600Y441960D03*
X228600Y594360D03*
X25400Y594360D03*
D11*
X190500Y602860D03*
X190500Y585860D03*
D12*
X181290Y589080D02*
X174310Y589080D01*
X181290Y589080D02*
X181290Y582100D01*
X174310Y582100D01*
X174310Y589080D01*
X174310Y586900D02*
X181290Y586900D01*
X181290Y606620D02*
X174310Y606620D01*
X181290Y606620D02*
X181290Y599640D01*
X174310Y599640D01*
X174310Y606620D01*
X174310Y604440D02*
X181290Y604440D01*
D13*
X117500Y506160D03*
X127000Y506160D03*
X136500Y506160D03*
X136500Y530160D03*
X117500Y530160D03*
X127000Y530160D03*
D14*
X135500Y543560D03*
X118500Y543560D03*
D11*
X88900Y471560D03*
X88900Y488560D03*
X107950Y488560D03*
X107950Y471560D03*
D14*
X143900Y471170D03*
X160900Y471170D03*
X143900Y454660D03*
X160900Y454660D03*
X143900Y488950D03*
X160900Y488950D03*
D11*
X127000Y471560D03*
X127000Y488560D03*
D15*
X99060Y600710D03*
X154940Y600710D03*
X99060Y562610D03*
X154940Y562610D03*
D16*
X139700Y429260D03*
X165100Y429260D03*
X88900Y429260D03*
X114300Y429260D03*
D17*
X70020Y508160D03*
X70020Y528160D03*
D18*
X18020Y484160D03*
X18020Y552160D03*
D16*
X25400Y530860D03*
X25400Y505460D03*
X76200Y581660D03*
X76200Y607060D03*
X228600Y505460D03*
X228600Y530860D03*
D17*
X183980Y528160D03*
X183980Y508160D03*
D18*
X235980Y552160D03*
X235980Y484160D03*
D19*
X245110Y610870D03*
X8890Y425450D03*
D20*
X109290Y454660D03*
X86290Y454660D03*
D10*
X284480Y441960D03*
X487680Y441960D03*
X487680Y594360D03*
X284480Y594360D03*
D11*
X449580Y602860D03*
X449580Y585860D03*
D12*
X440370Y589080D02*
X433390Y589080D01*
X440370Y589080D02*
X440370Y582100D01*
X433390Y582100D01*
X433390Y589080D01*
X433390Y586900D02*
X440370Y586900D01*
X440370Y606620D02*
X433390Y606620D01*
X440370Y606620D02*
X440370Y599640D01*
X433390Y599640D01*
X433390Y606620D01*
X433390Y604440D02*
X440370Y604440D01*
D13*
X376580Y506160D03*
X386080Y506160D03*
X395580Y506160D03*
X395580Y530160D03*
X376580Y530160D03*
X386080Y530160D03*
D14*
X394580Y543560D03*
X377580Y543560D03*
D11*
X347980Y471560D03*
X347980Y488560D03*
X367030Y488560D03*
X367030Y471560D03*
D14*
X402980Y471170D03*
X419980Y471170D03*
X402980Y454660D03*
X419980Y454660D03*
X402980Y488950D03*
X419980Y488950D03*
D11*
X386080Y471560D03*
X386080Y488560D03*
D15*
X358140Y600710D03*
X414020Y600710D03*
X358140Y562610D03*
X414020Y562610D03*
D16*
X398780Y429260D03*
X424180Y429260D03*
X347980Y429260D03*
X373380Y429260D03*
D17*
X329100Y508160D03*
X329100Y528160D03*
D18*
X277100Y484160D03*
X277100Y552160D03*
D16*
X284480Y530860D03*
X284480Y505460D03*
X335280Y581660D03*
X335280Y607060D03*
X487680Y505460D03*
X487680Y530860D03*
D17*
X443060Y528160D03*
X443060Y508160D03*
D18*
X495060Y552160D03*
X495060Y484160D03*
D19*
X504190Y610870D03*
X267970Y425450D03*
D20*
X368370Y454660D03*
X345370Y454660D03*
D10*
X543560Y441960D03*
X746760Y441960D03*
X746760Y594360D03*
X543560Y594360D03*
D11*
X708660Y602860D03*
X708660Y585860D03*
D12*
X699450Y589080D02*
X692470Y589080D01*
X699450Y589080D02*
X699450Y582100D01*
X692470Y582100D01*
X692470Y589080D01*
X692470Y586900D02*
X699450Y586900D01*
X699450Y606620D02*
X692470Y606620D01*
X699450Y606620D02*
X699450Y599640D01*
X692470Y599640D01*
X692470Y606620D01*
X692470Y604440D02*
X699450Y604440D01*
D13*
X635660Y506160D03*
X645160Y506160D03*
X654660Y506160D03*
X654660Y530160D03*
X635660Y530160D03*
X645160Y530160D03*
D14*
X653660Y543560D03*
X636660Y543560D03*
D11*
X607060Y471560D03*
X607060Y488560D03*
X626110Y488560D03*
X626110Y471560D03*
D14*
X662060Y471170D03*
X679060Y471170D03*
X662060Y454660D03*
X679060Y454660D03*
X662060Y488950D03*
X679060Y488950D03*
D11*
X645160Y471560D03*
X645160Y488560D03*
D15*
X617220Y600710D03*
X673100Y600710D03*
X617220Y562610D03*
X673100Y562610D03*
D16*
X657860Y429260D03*
X683260Y429260D03*
X607060Y429260D03*
X632460Y429260D03*
D17*
X588180Y508160D03*
X588180Y528160D03*
D18*
X536180Y484160D03*
X536180Y552160D03*
D16*
X543560Y530860D03*
X543560Y505460D03*
X594360Y581660D03*
X594360Y607060D03*
X746760Y505460D03*
X746760Y530860D03*
D17*
X702140Y528160D03*
X702140Y508160D03*
D18*
X754140Y552160D03*
X754140Y484160D03*
D19*
X763270Y610870D03*
X527050Y425450D03*
D20*
X627450Y454660D03*
X604450Y454660D03*
D10*
X802640Y441960D03*
X1005840Y441960D03*
X1005840Y594360D03*
X802640Y594360D03*
D11*
X967740Y602860D03*
X967740Y585860D03*
D12*
X958530Y589080D02*
X951550Y589080D01*
X958530Y589080D02*
X958530Y582100D01*
X951550Y582100D01*
X951550Y589080D01*
X951550Y586900D02*
X958530Y586900D01*
X958530Y606620D02*
X951550Y606620D01*
X958530Y606620D02*
X958530Y599640D01*
X951550Y599640D01*
X951550Y606620D01*
X951550Y604440D02*
X958530Y604440D01*
D13*
X894740Y506160D03*
X904240Y506160D03*
X913740Y506160D03*
X913740Y530160D03*
X894740Y530160D03*
X904240Y530160D03*
D14*
X912740Y543560D03*
X895740Y543560D03*
D11*
X866140Y471560D03*
X866140Y488560D03*
X885190Y488560D03*
X885190Y471560D03*
D14*
X921140Y471170D03*
X938140Y471170D03*
X921140Y454660D03*
X938140Y454660D03*
X921140Y488950D03*
X938140Y488950D03*
D11*
X904240Y471560D03*
X904240Y488560D03*
D15*
X876300Y600710D03*
X932180Y600710D03*
X876300Y562610D03*
X932180Y562610D03*
D16*
X916940Y429260D03*
X942340Y429260D03*
X866140Y429260D03*
X891540Y429260D03*
D17*
X847260Y508160D03*
X847260Y528160D03*
D18*
X795260Y484160D03*
X795260Y552160D03*
D16*
X802640Y530860D03*
X802640Y505460D03*
X853440Y581660D03*
X853440Y607060D03*
X1005840Y505460D03*
X1005840Y530860D03*
D17*
X961220Y528160D03*
X961220Y508160D03*
D18*
X1013220Y552160D03*
X1013220Y484160D03*
D19*
X1022350Y610870D03*
X786130Y425450D03*
D20*
X886530Y454660D03*
X863530Y454660D03*
D10*
X1061720Y441960D03*
X1264920Y441960D03*
X1264920Y594360D03*
X1061720Y594360D03*
D11*
X1226820Y602860D03*
X1226820Y585860D03*
D12*
X1217610Y589080D02*
X1210630Y589080D01*
X1217610Y589080D02*
X1217610Y582100D01*
X1210630Y582100D01*
X1210630Y589080D01*
X1210630Y586900D02*
X1217610Y586900D01*
X1217610Y606620D02*
X1210630Y606620D01*
X1217610Y606620D02*
X1217610Y599640D01*
X1210630Y599640D01*
X1210630Y606620D01*
X1210630Y604440D02*
X1217610Y604440D01*
D13*
X1153820Y506160D03*
X1163320Y506160D03*
X1172820Y506160D03*
X1172820Y530160D03*
X1153820Y530160D03*
X1163320Y530160D03*
D14*
X1171820Y543560D03*
X1154820Y543560D03*
D11*
X1125220Y471560D03*
X1125220Y488560D03*
X1144270Y488560D03*
X1144270Y471560D03*
D14*
X1180220Y471170D03*
X1197220Y471170D03*
X1180220Y454660D03*
X1197220Y454660D03*
X1180220Y488950D03*
X1197220Y488950D03*
D11*
X1163320Y471560D03*
X1163320Y488560D03*
D15*
X1135380Y600710D03*
X1191260Y600710D03*
X1135380Y562610D03*
X1191260Y562610D03*
D16*
X1176020Y429260D03*
X1201420Y429260D03*
X1125220Y429260D03*
X1150620Y429260D03*
D17*
X1106340Y508160D03*
X1106340Y528160D03*
D18*
X1054340Y484160D03*
X1054340Y552160D03*
D16*
X1061720Y530860D03*
X1061720Y505460D03*
X1112520Y581660D03*
X1112520Y607060D03*
X1264920Y505460D03*
X1264920Y530860D03*
D17*
X1220300Y528160D03*
X1220300Y508160D03*
D18*
X1272300Y552160D03*
X1272300Y484160D03*
D19*
X1281430Y610870D03*
X1045210Y425450D03*
D20*
X1145610Y454660D03*
X1122610Y454660D03*
D10*
X25400Y650240D03*
X228600Y650240D03*
X228600Y802640D03*
X25400Y802640D03*
D11*
X190500Y811140D03*
X190500Y794140D03*
D12*
X181290Y797360D02*
X174310Y797360D01*
X181290Y797360D02*
X181290Y790380D01*
X174310Y790380D01*
X174310Y797360D01*
X174310Y795180D02*
X181290Y795180D01*
X181290Y814900D02*
X174310Y814900D01*
X181290Y814900D02*
X181290Y807920D01*
X174310Y807920D01*
X174310Y814900D01*
X174310Y812720D02*
X181290Y812720D01*
D13*
X117500Y714440D03*
X127000Y714440D03*
X136500Y714440D03*
X136500Y738440D03*
X117500Y738440D03*
X127000Y738440D03*
D14*
X135500Y751840D03*
X118500Y751840D03*
D11*
X88900Y679840D03*
X88900Y696840D03*
X107950Y696840D03*
X107950Y679840D03*
D14*
X143900Y679450D03*
X160900Y679450D03*
X143900Y662940D03*
X160900Y662940D03*
X143900Y697230D03*
X160900Y697230D03*
D11*
X127000Y679840D03*
X127000Y696840D03*
D15*
X99060Y808990D03*
X154940Y808990D03*
X99060Y770890D03*
X154940Y770890D03*
D16*
X139700Y637540D03*
X165100Y637540D03*
X88900Y637540D03*
X114300Y637540D03*
D17*
X70020Y716440D03*
X70020Y736440D03*
D18*
X18020Y692440D03*
X18020Y760440D03*
D16*
X25400Y739140D03*
X25400Y713740D03*
X76200Y789940D03*
X76200Y815340D03*
X228600Y713740D03*
X228600Y739140D03*
D17*
X183980Y736440D03*
X183980Y716440D03*
D18*
X235980Y760440D03*
X235980Y692440D03*
D19*
X245110Y819150D03*
X8890Y633730D03*
D20*
X109290Y662940D03*
X86290Y662940D03*
D10*
X284480Y650240D03*
X487680Y650240D03*
X487680Y802640D03*
X284480Y802640D03*
D11*
X449580Y811140D03*
X449580Y794140D03*
D12*
X440370Y797360D02*
X433390Y797360D01*
X440370Y797360D02*
X440370Y790380D01*
X433390Y790380D01*
X433390Y797360D01*
X433390Y795180D02*
X440370Y795180D01*
X440370Y814900D02*
X433390Y814900D01*
X440370Y814900D02*
X440370Y807920D01*
X433390Y807920D01*
X433390Y814900D01*
X433390Y812720D02*
X440370Y812720D01*
D13*
X376580Y714440D03*
X386080Y714440D03*
X395580Y714440D03*
X395580Y738440D03*
X376580Y738440D03*
X386080Y738440D03*
D14*
X394580Y751840D03*
X377580Y751840D03*
D11*
X347980Y679840D03*
X347980Y696840D03*
X367030Y696840D03*
X367030Y679840D03*
D14*
X402980Y679450D03*
X419980Y679450D03*
X402980Y662940D03*
X419980Y662940D03*
X402980Y697230D03*
X419980Y697230D03*
D11*
X386080Y679840D03*
X386080Y696840D03*
D15*
X358140Y808990D03*
X414020Y808990D03*
X358140Y770890D03*
X414020Y770890D03*
D16*
X398780Y637540D03*
X424180Y637540D03*
X347980Y637540D03*
X373380Y637540D03*
D17*
X329100Y716440D03*
X329100Y736440D03*
D18*
X277100Y692440D03*
X277100Y760440D03*
D16*
X284480Y739140D03*
X284480Y713740D03*
X335280Y789940D03*
X335280Y815340D03*
X487680Y713740D03*
X487680Y739140D03*
D17*
X443060Y736440D03*
X443060Y716440D03*
D18*
X495060Y760440D03*
X495060Y692440D03*
D19*
X504190Y819150D03*
X267970Y633730D03*
D20*
X368370Y662940D03*
X345370Y662940D03*
D10*
X543560Y650240D03*
X746760Y650240D03*
X746760Y802640D03*
X543560Y802640D03*
D11*
X708660Y811140D03*
X708660Y794140D03*
D12*
X699450Y797360D02*
X692470Y797360D01*
X699450Y797360D02*
X699450Y790380D01*
X692470Y790380D01*
X692470Y797360D01*
X692470Y795180D02*
X699450Y795180D01*
X699450Y814900D02*
X692470Y814900D01*
X699450Y814900D02*
X699450Y807920D01*
X692470Y807920D01*
X692470Y814900D01*
X692470Y812720D02*
X699450Y812720D01*
D13*
X635660Y714440D03*
X645160Y714440D03*
X654660Y714440D03*
X654660Y738440D03*
X635660Y738440D03*
X645160Y738440D03*
D14*
X653660Y751840D03*
X636660Y751840D03*
D11*
X607060Y679840D03*
X607060Y696840D03*
X626110Y696840D03*
X626110Y679840D03*
D14*
X662060Y679450D03*
X679060Y679450D03*
X662060Y662940D03*
X679060Y662940D03*
X662060Y697230D03*
X679060Y697230D03*
D11*
X645160Y679840D03*
X645160Y696840D03*
D15*
X617220Y808990D03*
X673100Y808990D03*
X617220Y770890D03*
X673100Y770890D03*
D16*
X657860Y637540D03*
X683260Y637540D03*
X607060Y637540D03*
X632460Y637540D03*
D17*
X588180Y716440D03*
X588180Y736440D03*
D18*
X536180Y692440D03*
X536180Y760440D03*
D16*
X543560Y739140D03*
X543560Y713740D03*
X594360Y789940D03*
X594360Y815340D03*
X746760Y713740D03*
X746760Y739140D03*
D17*
X702140Y736440D03*
X702140Y716440D03*
D18*
X754140Y760440D03*
X754140Y692440D03*
D19*
X763270Y819150D03*
X527050Y633730D03*
D20*
X627450Y662940D03*
X604450Y662940D03*
D10*
X802640Y650240D03*
X1005840Y650240D03*
X1005840Y802640D03*
X802640Y802640D03*
D11*
X967740Y811140D03*
X967740Y794140D03*
D12*
X958530Y797360D02*
X951550Y797360D01*
X958530Y797360D02*
X958530Y790380D01*
X951550Y790380D01*
X951550Y797360D01*
X951550Y795180D02*
X958530Y795180D01*
X958530Y814900D02*
X951550Y814900D01*
X958530Y814900D02*
X958530Y807920D01*
X951550Y807920D01*
X951550Y814900D01*
X951550Y812720D02*
X958530Y812720D01*
D13*
X894740Y714440D03*
X904240Y714440D03*
X913740Y714440D03*
X913740Y738440D03*
X894740Y738440D03*
X904240Y738440D03*
D14*
X912740Y751840D03*
X895740Y751840D03*
D11*
X866140Y679840D03*
X866140Y696840D03*
X885190Y696840D03*
X885190Y679840D03*
D14*
X921140Y679450D03*
X938140Y679450D03*
X921140Y662940D03*
X938140Y662940D03*
X921140Y697230D03*
X938140Y697230D03*
D11*
X904240Y679840D03*
X904240Y696840D03*
D15*
X876300Y808990D03*
X932180Y808990D03*
X876300Y770890D03*
X932180Y770890D03*
D16*
X916940Y637540D03*
X942340Y637540D03*
X866140Y637540D03*
X891540Y637540D03*
D17*
X847260Y716440D03*
X847260Y736440D03*
D18*
X795260Y692440D03*
X795260Y760440D03*
D16*
X802640Y739140D03*
X802640Y713740D03*
X853440Y789940D03*
X853440Y815340D03*
X1005840Y713740D03*
X1005840Y739140D03*
D17*
X961220Y736440D03*
X961220Y716440D03*
D18*
X1013220Y760440D03*
X1013220Y692440D03*
D19*
X1022350Y819150D03*
X786130Y633730D03*
D20*
X886530Y662940D03*
X863530Y662940D03*
D10*
X1061720Y650240D03*
X1264920Y650240D03*
X1264920Y802640D03*
X1061720Y802640D03*
D11*
X1226820Y811140D03*
X1226820Y794140D03*
D12*
X1217610Y797360D02*
X1210630Y797360D01*
X1217610Y797360D02*
X1217610Y790380D01*
X1210630Y790380D01*
X1210630Y797360D01*
X1210630Y795180D02*
X1217610Y795180D01*
X1217610Y814900D02*
X1210630Y814900D01*
X1217610Y814900D02*
X1217610Y807920D01*
X1210630Y807920D01*
X1210630Y814900D01*
X1210630Y812720D02*
X1217610Y812720D01*
D13*
X1153820Y714440D03*
X1163320Y714440D03*
X1172820Y714440D03*
X1172820Y738440D03*
X1153820Y738440D03*
X1163320Y738440D03*
D14*
X1171820Y751840D03*
X1154820Y751840D03*
D11*
X1125220Y679840D03*
X1125220Y696840D03*
X1144270Y696840D03*
X1144270Y679840D03*
D14*
X1180220Y679450D03*
X1197220Y679450D03*
X1180220Y662940D03*
X1197220Y662940D03*
X1180220Y697230D03*
X1197220Y697230D03*
D11*
X1163320Y679840D03*
X1163320Y696840D03*
D15*
X1135380Y808990D03*
X1191260Y808990D03*
X1135380Y770890D03*
X1191260Y770890D03*
D16*
X1176020Y637540D03*
X1201420Y637540D03*
X1125220Y637540D03*
X1150620Y637540D03*
D17*
X1106340Y716440D03*
X1106340Y736440D03*
D18*
X1054340Y692440D03*
X1054340Y760440D03*
D16*
X1061720Y739140D03*
X1061720Y713740D03*
X1112520Y789940D03*
X1112520Y815340D03*
X1264920Y713740D03*
X1264920Y739140D03*
D17*
X1220300Y736440D03*
X1220300Y716440D03*
D18*
X1272300Y760440D03*
X1272300Y692440D03*
D19*
X1281430Y819150D03*
X1045210Y633730D03*
D20*
X1145610Y662940D03*
X1122610Y662940D03*
D10*
X25400Y858520D03*
X228600Y858520D03*
X228600Y1010920D03*
X25400Y1010920D03*
D11*
X190500Y1019420D03*
X190500Y1002420D03*
D12*
X181290Y1005640D02*
X174310Y1005640D01*
X181290Y1005640D02*
X181290Y998660D01*
X174310Y998660D01*
X174310Y1005640D01*
X174310Y1003460D02*
X181290Y1003460D01*
X181290Y1023180D02*
X174310Y1023180D01*
X181290Y1023180D02*
X181290Y1016200D01*
X174310Y1016200D01*
X174310Y1023180D01*
X174310Y1021000D02*
X181290Y1021000D01*
D13*
X117500Y922720D03*
X127000Y922720D03*
X136500Y922720D03*
X136500Y946720D03*
X117500Y946720D03*
X127000Y946720D03*
D14*
X135500Y960120D03*
X118500Y960120D03*
D11*
X88900Y888120D03*
X88900Y905120D03*
X107950Y905120D03*
X107950Y888120D03*
D14*
X143900Y887730D03*
X160900Y887730D03*
X143900Y871220D03*
X160900Y871220D03*
X143900Y905510D03*
X160900Y905510D03*
D11*
X127000Y888120D03*
X127000Y905120D03*
D15*
X99060Y1017270D03*
X154940Y1017270D03*
X99060Y979170D03*
X154940Y979170D03*
D16*
X139700Y845820D03*
X165100Y845820D03*
X88900Y845820D03*
X114300Y845820D03*
D17*
X70020Y924720D03*
X70020Y944720D03*
D18*
X18020Y900720D03*
X18020Y968720D03*
D16*
X25400Y947420D03*
X25400Y922020D03*
X76200Y998220D03*
X76200Y1023620D03*
X228600Y922020D03*
X228600Y947420D03*
D17*
X183980Y944720D03*
X183980Y924720D03*
D18*
X235980Y968720D03*
X235980Y900720D03*
D19*
X245110Y1027430D03*
X8890Y842010D03*
D20*
X109290Y871220D03*
X86290Y871220D03*
D10*
X284480Y858520D03*
X487680Y858520D03*
X487680Y1010920D03*
X284480Y1010920D03*
D11*
X449580Y1019420D03*
X449580Y1002420D03*
D12*
X440370Y1005640D02*
X433390Y1005640D01*
X440370Y1005640D02*
X440370Y998660D01*
X433390Y998660D01*
X433390Y1005640D01*
X433390Y1003460D02*
X440370Y1003460D01*
X440370Y1023180D02*
X433390Y1023180D01*
X440370Y1023180D02*
X440370Y1016200D01*
X433390Y1016200D01*
X433390Y1023180D01*
X433390Y1021000D02*
X440370Y1021000D01*
D13*
X376580Y922720D03*
X386080Y922720D03*
X395580Y922720D03*
X395580Y946720D03*
X376580Y946720D03*
X386080Y946720D03*
D14*
X394580Y960120D03*
X377580Y960120D03*
D11*
X347980Y888120D03*
X347980Y905120D03*
X367030Y905120D03*
X367030Y888120D03*
D14*
X402980Y887730D03*
X419980Y887730D03*
X402980Y871220D03*
X419980Y871220D03*
X402980Y905510D03*
X419980Y905510D03*
D11*
X386080Y888120D03*
X386080Y905120D03*
D15*
X358140Y1017270D03*
X414020Y1017270D03*
X358140Y979170D03*
X414020Y979170D03*
D16*
X398780Y845820D03*
X424180Y845820D03*
X347980Y845820D03*
X373380Y845820D03*
D17*
X329100Y924720D03*
X329100Y944720D03*
D18*
X277100Y900720D03*
X277100Y968720D03*
D16*
X284480Y947420D03*
X284480Y922020D03*
X335280Y998220D03*
X335280Y1023620D03*
X487680Y922020D03*
X487680Y947420D03*
D17*
X443060Y944720D03*
X443060Y924720D03*
D18*
X495060Y968720D03*
X495060Y900720D03*
D19*
X504190Y1027430D03*
X267970Y842010D03*
D20*
X368370Y871220D03*
X345370Y871220D03*
D10*
X543560Y858520D03*
X746760Y858520D03*
X746760Y1010920D03*
X543560Y1010920D03*
D11*
X708660Y1019420D03*
X708660Y1002420D03*
D12*
X699450Y1005640D02*
X692470Y1005640D01*
X699450Y1005640D02*
X699450Y998660D01*
X692470Y998660D01*
X692470Y1005640D01*
X692470Y1003460D02*
X699450Y1003460D01*
X699450Y1023180D02*
X692470Y1023180D01*
X699450Y1023180D02*
X699450Y1016200D01*
X692470Y1016200D01*
X692470Y1023180D01*
X692470Y1021000D02*
X699450Y1021000D01*
D13*
X635660Y922720D03*
X645160Y922720D03*
X654660Y922720D03*
X654660Y946720D03*
X635660Y946720D03*
X645160Y946720D03*
D14*
X653660Y960120D03*
X636660Y960120D03*
D11*
X607060Y888120D03*
X607060Y905120D03*
X626110Y905120D03*
X626110Y888120D03*
D14*
X662060Y887730D03*
X679060Y887730D03*
X662060Y871220D03*
X679060Y871220D03*
X662060Y905510D03*
X679060Y905510D03*
D11*
X645160Y888120D03*
X645160Y905120D03*
D15*
X617220Y1017270D03*
X673100Y1017270D03*
X617220Y979170D03*
X673100Y979170D03*
D16*
X657860Y845820D03*
X683260Y845820D03*
X607060Y845820D03*
X632460Y845820D03*
D17*
X588180Y924720D03*
X588180Y944720D03*
D18*
X536180Y900720D03*
X536180Y968720D03*
D16*
X543560Y947420D03*
X543560Y922020D03*
X594360Y998220D03*
X594360Y1023620D03*
X746760Y922020D03*
X746760Y947420D03*
D17*
X702140Y944720D03*
X702140Y924720D03*
D18*
X754140Y968720D03*
X754140Y900720D03*
D19*
X763270Y1027430D03*
X527050Y842010D03*
D20*
X627450Y871220D03*
X604450Y871220D03*
D10*
X802640Y858520D03*
X1005840Y858520D03*
X1005840Y1010920D03*
X802640Y1010920D03*
D11*
X967740Y1019420D03*
X967740Y1002420D03*
D12*
X958530Y1005640D02*
X951550Y1005640D01*
X958530Y1005640D02*
X958530Y998660D01*
X951550Y998660D01*
X951550Y1005640D01*
X951550Y1003460D02*
X958530Y1003460D01*
X958530Y1023180D02*
X951550Y1023180D01*
X958530Y1023180D02*
X958530Y1016200D01*
X951550Y1016200D01*
X951550Y1023180D01*
X951550Y1021000D02*
X958530Y1021000D01*
D13*
X894740Y922720D03*
X904240Y922720D03*
X913740Y922720D03*
X913740Y946720D03*
X894740Y946720D03*
X904240Y946720D03*
D14*
X912740Y960120D03*
X895740Y960120D03*
D11*
X866140Y888120D03*
X866140Y905120D03*
X885190Y905120D03*
X885190Y888120D03*
D14*
X921140Y887730D03*
X938140Y887730D03*
X921140Y871220D03*
X938140Y871220D03*
X921140Y905510D03*
X938140Y905510D03*
D11*
X904240Y888120D03*
X904240Y905120D03*
D15*
X876300Y1017270D03*
X932180Y1017270D03*
X876300Y979170D03*
X932180Y979170D03*
D16*
X916940Y845820D03*
X942340Y845820D03*
X866140Y845820D03*
X891540Y845820D03*
D17*
X847260Y924720D03*
X847260Y944720D03*
D18*
X795260Y900720D03*
X795260Y968720D03*
D16*
X802640Y947420D03*
X802640Y922020D03*
X853440Y998220D03*
X853440Y1023620D03*
X1005840Y922020D03*
X1005840Y947420D03*
D17*
X961220Y944720D03*
X961220Y924720D03*
D18*
X1013220Y968720D03*
X1013220Y900720D03*
D19*
X1022350Y1027430D03*
X786130Y842010D03*
D20*
X886530Y871220D03*
X863530Y871220D03*
D10*
X1061720Y858520D03*
X1264920Y858520D03*
X1264920Y1010920D03*
X1061720Y1010920D03*
D11*
X1226820Y1019420D03*
X1226820Y1002420D03*
D12*
X1217610Y1005640D02*
X1210630Y1005640D01*
X1217610Y1005640D02*
X1217610Y998660D01*
X1210630Y998660D01*
X1210630Y1005640D01*
X1210630Y1003460D02*
X1217610Y1003460D01*
X1217610Y1023180D02*
X1210630Y1023180D01*
X1217610Y1023180D02*
X1217610Y1016200D01*
X1210630Y1016200D01*
X1210630Y1023180D01*
X1210630Y1021000D02*
X1217610Y1021000D01*
D13*
X1153820Y922720D03*
X1163320Y922720D03*
X1172820Y922720D03*
X1172820Y946720D03*
X1153820Y946720D03*
X1163320Y946720D03*
D14*
X1171820Y960120D03*
X1154820Y960120D03*
D11*
X1125220Y888120D03*
X1125220Y905120D03*
X1144270Y905120D03*
X1144270Y888120D03*
D14*
X1180220Y887730D03*
X1197220Y887730D03*
X1180220Y871220D03*
X1197220Y871220D03*
X1180220Y905510D03*
X1197220Y905510D03*
D11*
X1163320Y888120D03*
X1163320Y905120D03*
D15*
X1135380Y1017270D03*
X1191260Y1017270D03*
X1135380Y979170D03*
X1191260Y979170D03*
D16*
X1176020Y845820D03*
X1201420Y845820D03*
X1125220Y845820D03*
X1150620Y845820D03*
D17*
X1106340Y924720D03*
X1106340Y944720D03*
D18*
X1054340Y900720D03*
X1054340Y968720D03*
D16*
X1061720Y947420D03*
X1061720Y922020D03*
X1112520Y998220D03*
X1112520Y1023620D03*
X1264920Y922020D03*
X1264920Y947420D03*
D17*
X1220300Y944720D03*
X1220300Y924720D03*
D18*
X1272300Y968720D03*
X1272300Y900720D03*
D19*
X1281430Y1027430D03*
X1045210Y842010D03*
D20*
X1145610Y871220D03*
X1122610Y871220D03*
D10*
X25400Y1066800D03*
X228600Y1066800D03*
X228600Y1219200D03*
X25400Y1219200D03*
D11*
X190500Y1227700D03*
X190500Y1210700D03*
D12*
X181290Y1213920D02*
X174310Y1213920D01*
X181290Y1213920D02*
X181290Y1206940D01*
X174310Y1206940D01*
X174310Y1213920D01*
X174310Y1211740D02*
X181290Y1211740D01*
X181290Y1231460D02*
X174310Y1231460D01*
X181290Y1231460D02*
X181290Y1224480D01*
X174310Y1224480D01*
X174310Y1231460D01*
X174310Y1229280D02*
X181290Y1229280D01*
D13*
X117500Y1131000D03*
X127000Y1131000D03*
X136500Y1131000D03*
X136500Y1155000D03*
X117500Y1155000D03*
X127000Y1155000D03*
D14*
X135500Y1168400D03*
X118500Y1168400D03*
D11*
X88900Y1096400D03*
X88900Y1113400D03*
X107950Y1113400D03*
X107950Y1096400D03*
D14*
X143900Y1096010D03*
X160900Y1096010D03*
X143900Y1079500D03*
X160900Y1079500D03*
X143900Y1113790D03*
X160900Y1113790D03*
D11*
X127000Y1096400D03*
X127000Y1113400D03*
D15*
X99060Y1225550D03*
X154940Y1225550D03*
X99060Y1187450D03*
X154940Y1187450D03*
D16*
X139700Y1054100D03*
X165100Y1054100D03*
X88900Y1054100D03*
X114300Y1054100D03*
D17*
X70020Y1133000D03*
X70020Y1153000D03*
D18*
X18020Y1109000D03*
X18020Y1177000D03*
D16*
X25400Y1155700D03*
X25400Y1130300D03*
X76200Y1206500D03*
X76200Y1231900D03*
X228600Y1130300D03*
X228600Y1155700D03*
D17*
X183980Y1153000D03*
X183980Y1133000D03*
D18*
X235980Y1177000D03*
X235980Y1109000D03*
D19*
X245110Y1235710D03*
X8890Y1050290D03*
D20*
X109290Y1079500D03*
X86290Y1079500D03*
D10*
X284480Y1066800D03*
X487680Y1066800D03*
X487680Y1219200D03*
X284480Y1219200D03*
D11*
X449580Y1227700D03*
X449580Y1210700D03*
D12*
X440370Y1213920D02*
X433390Y1213920D01*
X440370Y1213920D02*
X440370Y1206940D01*
X433390Y1206940D01*
X433390Y1213920D01*
X433390Y1211740D02*
X440370Y1211740D01*
X440370Y1231460D02*
X433390Y1231460D01*
X440370Y1231460D02*
X440370Y1224480D01*
X433390Y1224480D01*
X433390Y1231460D01*
X433390Y1229280D02*
X440370Y1229280D01*
D13*
X376580Y1131000D03*
X386080Y1131000D03*
X395580Y1131000D03*
X395580Y1155000D03*
X376580Y1155000D03*
X386080Y1155000D03*
D14*
X394580Y1168400D03*
X377580Y1168400D03*
D11*
X347980Y1096400D03*
X347980Y1113400D03*
X367030Y1113400D03*
X367030Y1096400D03*
D14*
X402980Y1096010D03*
X419980Y1096010D03*
X402980Y1079500D03*
X419980Y1079500D03*
X402980Y1113790D03*
X419980Y1113790D03*
D11*
X386080Y1096400D03*
X386080Y1113400D03*
D15*
X358140Y1225550D03*
X414020Y1225550D03*
X358140Y1187450D03*
X414020Y1187450D03*
D16*
X398780Y1054100D03*
X424180Y1054100D03*
X347980Y1054100D03*
X373380Y1054100D03*
D17*
X329100Y1133000D03*
X329100Y1153000D03*
D18*
X277100Y1109000D03*
X277100Y1177000D03*
D16*
X284480Y1155700D03*
X284480Y1130300D03*
X335280Y1206500D03*
X335280Y1231900D03*
X487680Y1130300D03*
X487680Y1155700D03*
D17*
X443060Y1153000D03*
X443060Y1133000D03*
D18*
X495060Y1177000D03*
X495060Y1109000D03*
D19*
X504190Y1235710D03*
X267970Y1050290D03*
D20*
X368370Y1079500D03*
X345370Y1079500D03*
D10*
X543560Y1066800D03*
X746760Y1066800D03*
X746760Y1219200D03*
X543560Y1219200D03*
D11*
X708660Y1227700D03*
X708660Y1210700D03*
D12*
X699450Y1213920D02*
X692470Y1213920D01*
X699450Y1213920D02*
X699450Y1206940D01*
X692470Y1206940D01*
X692470Y1213920D01*
X692470Y1211740D02*
X699450Y1211740D01*
X699450Y1231460D02*
X692470Y1231460D01*
X699450Y1231460D02*
X699450Y1224480D01*
X692470Y1224480D01*
X692470Y1231460D01*
X692470Y1229280D02*
X699450Y1229280D01*
D13*
X635660Y1131000D03*
X645160Y1131000D03*
X654660Y1131000D03*
X654660Y1155000D03*
X635660Y1155000D03*
X645160Y1155000D03*
D14*
X653660Y1168400D03*
X636660Y1168400D03*
D11*
X607060Y1096400D03*
X607060Y1113400D03*
X626110Y1113400D03*
X626110Y1096400D03*
D14*
X662060Y1096010D03*
X679060Y1096010D03*
X662060Y1079500D03*
X679060Y1079500D03*
X662060Y1113790D03*
X679060Y1113790D03*
D11*
X645160Y1096400D03*
X645160Y1113400D03*
D15*
X617220Y1225550D03*
X673100Y1225550D03*
X617220Y1187450D03*
X673100Y1187450D03*
D16*
X657860Y1054100D03*
X683260Y1054100D03*
X607060Y1054100D03*
X632460Y1054100D03*
D17*
X588180Y1133000D03*
X588180Y1153000D03*
D18*
X536180Y1109000D03*
X536180Y1177000D03*
D16*
X543560Y1155700D03*
X543560Y1130300D03*
X594360Y1206500D03*
X594360Y1231900D03*
X746760Y1130300D03*
X746760Y1155700D03*
D17*
X702140Y1153000D03*
X702140Y1133000D03*
D18*
X754140Y1177000D03*
X754140Y1109000D03*
D19*
X763270Y1235710D03*
X527050Y1050290D03*
D20*
X627450Y1079500D03*
X604450Y1079500D03*
D10*
X802640Y1066800D03*
X1005840Y1066800D03*
X1005840Y1219200D03*
X802640Y1219200D03*
D11*
X967740Y1227700D03*
X967740Y1210700D03*
D12*
X958530Y1213920D02*
X951550Y1213920D01*
X958530Y1213920D02*
X958530Y1206940D01*
X951550Y1206940D01*
X951550Y1213920D01*
X951550Y1211740D02*
X958530Y1211740D01*
X958530Y1231460D02*
X951550Y1231460D01*
X958530Y1231460D02*
X958530Y1224480D01*
X951550Y1224480D01*
X951550Y1231460D01*
X951550Y1229280D02*
X958530Y1229280D01*
D13*
X894740Y1131000D03*
X904240Y1131000D03*
X913740Y1131000D03*
X913740Y1155000D03*
X894740Y1155000D03*
X904240Y1155000D03*
D14*
X912740Y1168400D03*
X895740Y1168400D03*
D11*
X866140Y1096400D03*
X866140Y1113400D03*
X885190Y1113400D03*
X885190Y1096400D03*
D14*
X921140Y1096010D03*
X938140Y1096010D03*
X921140Y1079500D03*
X938140Y1079500D03*
X921140Y1113790D03*
X938140Y1113790D03*
D11*
X904240Y1096400D03*
X904240Y1113400D03*
D15*
X876300Y1225550D03*
X932180Y1225550D03*
X876300Y1187450D03*
X932180Y1187450D03*
D16*
X916940Y1054100D03*
X942340Y1054100D03*
X866140Y1054100D03*
X891540Y1054100D03*
D17*
X847260Y1133000D03*
X847260Y1153000D03*
D18*
X795260Y1109000D03*
X795260Y1177000D03*
D16*
X802640Y1155700D03*
X802640Y1130300D03*
X853440Y1206500D03*
X853440Y1231900D03*
X1005840Y1130300D03*
X1005840Y1155700D03*
D17*
X961220Y1153000D03*
X961220Y1133000D03*
D18*
X1013220Y1177000D03*
X1013220Y1109000D03*
D19*
X1022350Y1235710D03*
X786130Y1050290D03*
D20*
X886530Y1079500D03*
X863530Y1079500D03*
D10*
X1061720Y1066800D03*
X1264920Y1066800D03*
X1264920Y1219200D03*
X1061720Y1219200D03*
D11*
X1226820Y1227700D03*
X1226820Y1210700D03*
D12*
X1217610Y1213920D02*
X1210630Y1213920D01*
X1217610Y1213920D02*
X1217610Y1206940D01*
X1210630Y1206940D01*
X1210630Y1213920D01*
X1210630Y1211740D02*
X1217610Y1211740D01*
X1217610Y1231460D02*
X1210630Y1231460D01*
X1217610Y1231460D02*
X1217610Y1224480D01*
X1210630Y1224480D01*
X1210630Y1231460D01*
X1210630Y1229280D02*
X1217610Y1229280D01*
D13*
X1153820Y1131000D03*
X1163320Y1131000D03*
X1172820Y1131000D03*
X1172820Y1155000D03*
X1153820Y1155000D03*
X1163320Y1155000D03*
D14*
X1171820Y1168400D03*
X1154820Y1168400D03*
D11*
X1125220Y1096400D03*
X1125220Y1113400D03*
X1144270Y1113400D03*
X1144270Y1096400D03*
D14*
X1180220Y1096010D03*
X1197220Y1096010D03*
X1180220Y1079500D03*
X1197220Y1079500D03*
X1180220Y1113790D03*
X1197220Y1113790D03*
D11*
X1163320Y1096400D03*
X1163320Y1113400D03*
D15*
X1135380Y1225550D03*
X1191260Y1225550D03*
X1135380Y1187450D03*
X1191260Y1187450D03*
D16*
X1176020Y1054100D03*
X1201420Y1054100D03*
X1125220Y1054100D03*
X1150620Y1054100D03*
D17*
X1106340Y1133000D03*
X1106340Y1153000D03*
D18*
X1054340Y1109000D03*
X1054340Y1177000D03*
D16*
X1061720Y1155700D03*
X1061720Y1130300D03*
X1112520Y1206500D03*
X1112520Y1231900D03*
X1264920Y1130300D03*
X1264920Y1155700D03*
D17*
X1220300Y1153000D03*
X1220300Y1133000D03*
D18*
X1272300Y1177000D03*
X1272300Y1109000D03*
D19*
X1281430Y1235710D03*
X1045210Y1050290D03*
D20*
X1145610Y1079500D03*
X1122610Y1079500D03*
D19*
X68580Y1265555D03*
X1221105Y1265555D03*
D21*
X59525Y-20955D02*
X59528Y-20733D01*
X59536Y-20511D01*
X59550Y-20289D01*
X59569Y-20067D01*
X59593Y-19847D01*
X59623Y-19626D01*
X59658Y-19407D01*
X59699Y-19188D01*
X59745Y-18971D01*
X59796Y-18755D01*
X59853Y-18540D01*
X59915Y-18326D01*
X59982Y-18115D01*
X60054Y-17904D01*
X60132Y-17696D01*
X60214Y-17490D01*
X60302Y-17286D01*
X60394Y-17083D01*
X60492Y-16884D01*
X60594Y-16687D01*
X60701Y-16492D01*
X60813Y-16300D01*
X60930Y-16111D01*
X61051Y-15924D01*
X61177Y-15741D01*
X61307Y-15561D01*
X61442Y-15384D01*
X61580Y-15211D01*
X61723Y-15041D01*
X61871Y-14874D01*
X62022Y-14711D01*
X62177Y-14552D01*
X62336Y-14397D01*
X62499Y-14246D01*
X62666Y-14098D01*
X62836Y-13955D01*
X63009Y-13817D01*
X63186Y-13682D01*
X63366Y-13552D01*
X63549Y-13426D01*
X63736Y-13305D01*
X63925Y-13188D01*
X64117Y-13076D01*
X64312Y-12969D01*
X64509Y-12867D01*
X64708Y-12769D01*
X64911Y-12677D01*
X65115Y-12589D01*
X65321Y-12507D01*
X65529Y-12429D01*
X65740Y-12357D01*
X65951Y-12290D01*
X66165Y-12228D01*
X66380Y-12171D01*
X66596Y-12120D01*
X66813Y-12074D01*
X67032Y-12033D01*
X67251Y-11998D01*
X67472Y-11968D01*
X67692Y-11944D01*
X67914Y-11925D01*
X68136Y-11911D01*
X68358Y-11903D01*
X68580Y-11900D01*
X68802Y-11903D01*
X69024Y-11911D01*
X69246Y-11925D01*
X69468Y-11944D01*
X69688Y-11968D01*
X69909Y-11998D01*
X70128Y-12033D01*
X70347Y-12074D01*
X70564Y-12120D01*
X70780Y-12171D01*
X70995Y-12228D01*
X71209Y-12290D01*
X71420Y-12357D01*
X71631Y-12429D01*
X71839Y-12507D01*
X72045Y-12589D01*
X72249Y-12677D01*
X72452Y-12769D01*
X72651Y-12867D01*
X72848Y-12969D01*
X73043Y-13076D01*
X73235Y-13188D01*
X73424Y-13305D01*
X73611Y-13426D01*
X73794Y-13552D01*
X73974Y-13682D01*
X74151Y-13817D01*
X74324Y-13955D01*
X74494Y-14098D01*
X74661Y-14246D01*
X74824Y-14397D01*
X74983Y-14552D01*
X75138Y-14711D01*
X75289Y-14874D01*
X75437Y-15041D01*
X75580Y-15211D01*
X75718Y-15384D01*
X75853Y-15561D01*
X75983Y-15741D01*
X76109Y-15924D01*
X76230Y-16111D01*
X76347Y-16300D01*
X76459Y-16492D01*
X76566Y-16687D01*
X76668Y-16884D01*
X76766Y-17083D01*
X76858Y-17286D01*
X76946Y-17490D01*
X77028Y-17696D01*
X77106Y-17904D01*
X77178Y-18115D01*
X77245Y-18326D01*
X77307Y-18540D01*
X77364Y-18755D01*
X77415Y-18971D01*
X77461Y-19188D01*
X77502Y-19407D01*
X77537Y-19626D01*
X77567Y-19847D01*
X77591Y-20067D01*
X77610Y-20289D01*
X77624Y-20511D01*
X77632Y-20733D01*
X77635Y-20955D01*
X77632Y-21177D01*
X77624Y-21399D01*
X77610Y-21621D01*
X77591Y-21843D01*
X77567Y-22063D01*
X77537Y-22284D01*
X77502Y-22503D01*
X77461Y-22722D01*
X77415Y-22939D01*
X77364Y-23155D01*
X77307Y-23370D01*
X77245Y-23584D01*
X77178Y-23795D01*
X77106Y-24006D01*
X77028Y-24214D01*
X76946Y-24420D01*
X76858Y-24624D01*
X76766Y-24827D01*
X76668Y-25026D01*
X76566Y-25223D01*
X76459Y-25418D01*
X76347Y-25610D01*
X76230Y-25799D01*
X76109Y-25986D01*
X75983Y-26169D01*
X75853Y-26349D01*
X75718Y-26526D01*
X75580Y-26699D01*
X75437Y-26869D01*
X75289Y-27036D01*
X75138Y-27199D01*
X74983Y-27358D01*
X74824Y-27513D01*
X74661Y-27664D01*
X74494Y-27812D01*
X74324Y-27955D01*
X74151Y-28093D01*
X73974Y-28228D01*
X73794Y-28358D01*
X73611Y-28484D01*
X73424Y-28605D01*
X73235Y-28722D01*
X73043Y-28834D01*
X72848Y-28941D01*
X72651Y-29043D01*
X72452Y-29141D01*
X72249Y-29233D01*
X72045Y-29321D01*
X71839Y-29403D01*
X71631Y-29481D01*
X71420Y-29553D01*
X71209Y-29620D01*
X70995Y-29682D01*
X70780Y-29739D01*
X70564Y-29790D01*
X70347Y-29836D01*
X70128Y-29877D01*
X69909Y-29912D01*
X69688Y-29942D01*
X69468Y-29966D01*
X69246Y-29985D01*
X69024Y-29999D01*
X68802Y-30007D01*
X68580Y-30010D01*
X68358Y-30007D01*
X68136Y-29999D01*
X67914Y-29985D01*
X67692Y-29966D01*
X67472Y-29942D01*
X67251Y-29912D01*
X67032Y-29877D01*
X66813Y-29836D01*
X66596Y-29790D01*
X66380Y-29739D01*
X66165Y-29682D01*
X65951Y-29620D01*
X65740Y-29553D01*
X65529Y-29481D01*
X65321Y-29403D01*
X65115Y-29321D01*
X64911Y-29233D01*
X64708Y-29141D01*
X64509Y-29043D01*
X64312Y-28941D01*
X64117Y-28834D01*
X63925Y-28722D01*
X63736Y-28605D01*
X63549Y-28484D01*
X63366Y-28358D01*
X63186Y-28228D01*
X63009Y-28093D01*
X62836Y-27955D01*
X62666Y-27812D01*
X62499Y-27664D01*
X62336Y-27513D01*
X62177Y-27358D01*
X62022Y-27199D01*
X61871Y-27036D01*
X61723Y-26869D01*
X61580Y-26699D01*
X61442Y-26526D01*
X61307Y-26349D01*
X61177Y-26169D01*
X61051Y-25986D01*
X60930Y-25799D01*
X60813Y-25610D01*
X60701Y-25418D01*
X60594Y-25223D01*
X60492Y-25026D01*
X60394Y-24827D01*
X60302Y-24624D01*
X60214Y-24420D01*
X60132Y-24214D01*
X60054Y-24006D01*
X59982Y-23795D01*
X59915Y-23584D01*
X59853Y-23370D01*
X59796Y-23155D01*
X59745Y-22939D01*
X59699Y-22722D01*
X59658Y-22503D01*
X59623Y-22284D01*
X59593Y-22063D01*
X59569Y-21843D01*
X59550Y-21621D01*
X59536Y-21399D01*
X59528Y-21177D01*
X59525Y-20955D01*
D22*
X68580Y-20955D03*
M02*
