M48
;GenerationSoftware,Autodesk,EAGLE,9.6.2*%
;CreationDate,2021-01-26T23:11:47Z*%
FMAT,2
ICI,OFF
METRIC,TZ,000.000
T3C0.305
T2C1.016
T1C3.302
%
G90
M71
T1
X106172Y44196
X106172Y121920
X2540Y2540
X22860Y2540
X22860Y17780
X2540Y17780
X28448Y2540
X48768Y2540
X48768Y17780
X28448Y17780
X54356Y2540
X74676Y2540
X74676Y17780
X54356Y17780
X80264Y2540
X100584Y2540
X100584Y17780
X80264Y17780
X106172Y2540
X126492Y2540
X126492Y17780
X106172Y17780
X2540Y23368
X22860Y23368
X22860Y38608
X2540Y38608
X28448Y23368
X48768Y23368
X48768Y38608
X28448Y38608
X54356Y23368
X74676Y23368
X74676Y38608
X54356Y38608
X80264Y23368
X100584Y23368
X100584Y38608
X80264Y38608
X106172Y23368
X126492Y23368
X126492Y38608
X106172Y38608
X2540Y44196
X22860Y44196
X22860Y59436
X2540Y59436
X28448Y44196
X48768Y44196
X48768Y59436
X28448Y59436
X54356Y44196
X74676Y44196
X74676Y59436
X54356Y59436
X80264Y44196
X100584Y44196
X100584Y59436
X80264Y59436
X126492Y44196
X126492Y59436
X106172Y59436
X2540Y65024
X22860Y65024
X22860Y80264
X2540Y80264
X28448Y65024
X48768Y65024
X48768Y80264
X28448Y80264
X54356Y65024
X74676Y65024
X74676Y80264
X54356Y80264
X80264Y65024
X100584Y65024
X100584Y80264
X80264Y80264
X106172Y65024
X126492Y65024
X126492Y80264
X106172Y80264
X2540Y85852
X22860Y85852
X22860Y101092
X2540Y101092
X28448Y85852
X48768Y85852
X48768Y101092
X28448Y101092
X54356Y85852
X74676Y85852
X74676Y101092
X54356Y101092
X80264Y85852
X100584Y85852
X100584Y101092
X80264Y101092
X106172Y85852
X126492Y85852
X126492Y101092
X106172Y101092
X2540Y106680
X22860Y106680
X22860Y121920
X2540Y121920
X28448Y106680
X48768Y106680
X48768Y121920
X28448Y121920
X54356Y106680
X74676Y106680
X74676Y121920
X54356Y121920
X80264Y106680
X100584Y106680
X100584Y121920
X80264Y121920
X106172Y106680
X126492Y106680
X126492Y121920
T2
X91694Y63754
X13970Y1270
X16510Y1270
X2540Y11430
X2540Y8890
X7620Y16510
X7620Y19050
X22860Y8890
X22860Y11430
X11430Y1270
X8890Y1270
X6350Y1270
X39878Y1270
X42418Y1270
X28448Y11430
X28448Y8890
X33528Y16510
X33528Y19050
X48768Y8890
X48768Y11430
X37338Y1270
X34798Y1270
X32258Y1270
X65786Y1270
X68326Y1270
X54356Y11430
X54356Y8890
X59436Y16510
X59436Y19050
X74676Y8890
X74676Y11430
X63246Y1270
X60706Y1270
X58166Y1270
X91694Y1270
X94234Y1270
X80264Y11430
X80264Y8890
X85344Y16510
X85344Y19050
X100584Y8890
X100584Y11430
X89154Y1270
X86614Y1270
X84074Y1270
X117602Y1270
X120142Y1270
X106172Y11430
X106172Y8890
X111252Y16510
X111252Y19050
X126492Y8890
X126492Y11430
X115062Y1270
X112522Y1270
X109982Y1270
X13970Y22098
X16510Y22098
X2540Y32258
X2540Y29718
X7620Y37338
X7620Y39878
X22860Y29718
X22860Y32258
X11430Y22098
X8890Y22098
X6350Y22098
X39878Y22098
X42418Y22098
X28448Y32258
X28448Y29718
X33528Y37338
X33528Y39878
X48768Y29718
X48768Y32258
X37338Y22098
X34798Y22098
X32258Y22098
X65786Y22098
X68326Y22098
X54356Y32258
X54356Y29718
X59436Y37338
X59436Y39878
X74676Y29718
X74676Y32258
X63246Y22098
X60706Y22098
X58166Y22098
X91694Y22098
X94234Y22098
X80264Y32258
X80264Y29718
X85344Y37338
X85344Y39878
X100584Y29718
X100584Y32258
X89154Y22098
X86614Y22098
X84074Y22098
X117602Y22098
X120142Y22098
X106172Y32258
X106172Y29718
X111252Y37338
X111252Y39878
X126492Y29718
X126492Y32258
X115062Y22098
X112522Y22098
X109982Y22098
X13970Y42926
X16510Y42926
X2540Y53086
X2540Y50546
X7620Y58166
X7620Y60706
X22860Y50546
X22860Y53086
X11430Y42926
X8890Y42926
X6350Y42926
X39878Y42926
X42418Y42926
X28448Y53086
X28448Y50546
X33528Y58166
X33528Y60706
X48768Y50546
X48768Y53086
X37338Y42926
X34798Y42926
X32258Y42926
X65786Y42926
X68326Y42926
X54356Y53086
X54356Y50546
X59436Y58166
X59436Y60706
X74676Y50546
X74676Y53086
X63246Y42926
X60706Y42926
X58166Y42926
X91694Y42926
X94234Y42926
X80264Y53086
X80264Y50546
X85344Y58166
X85344Y60706
X100584Y50546
X100584Y53086
X89154Y42926
X86614Y42926
X84074Y42926
X117602Y42926
X120142Y42926
X106172Y53086
X106172Y50546
X111252Y58166
X111252Y60706
X126492Y50546
X126492Y53086
X115062Y42926
X112522Y42926
X109982Y42926
X13970Y63754
X16510Y63754
X2540Y73914
X2540Y71374
X7620Y78994
X7620Y81534
X22860Y71374
X22860Y73914
X11430Y63754
X8890Y63754
X6350Y63754
X39878Y63754
X42418Y63754
X28448Y73914
X28448Y71374
X33528Y78994
X33528Y81534
X48768Y71374
X48768Y73914
X37338Y63754
X34798Y63754
X32258Y63754
X65786Y63754
X68326Y63754
X54356Y73914
X54356Y71374
X59436Y78994
X59436Y81534
X74676Y71374
X74676Y73914
X63246Y63754
X60706Y63754
X58166Y63754
X94234Y63754
X80264Y73914
X80264Y71374
X85344Y78994
X85344Y81534
X100584Y71374
X100584Y73914
X89154Y63754
X86614Y63754
X84074Y63754
X117602Y63754
X120142Y63754
X106172Y73914
X106172Y71374
X111252Y78994
X111252Y81534
X126492Y71374
X126492Y73914
X115062Y63754
X112522Y63754
X109982Y63754
X13970Y84582
X16510Y84582
X2540Y94742
X2540Y92202
X7620Y99822
X7620Y102362
X22860Y92202
X22860Y94742
X11430Y84582
X8890Y84582
X6350Y84582
X39878Y84582
X42418Y84582
X28448Y94742
X28448Y92202
X33528Y99822
X33528Y102362
X48768Y92202
X48768Y94742
X37338Y84582
X34798Y84582
X32258Y84582
X65786Y84582
X68326Y84582
X54356Y94742
X54356Y92202
X59436Y99822
X59436Y102362
X74676Y92202
X74676Y94742
X63246Y84582
X60706Y84582
X58166Y84582
X91694Y84582
X94234Y84582
X80264Y94742
X80264Y92202
X85344Y99822
X85344Y102362
X100584Y92202
X100584Y94742
X89154Y84582
X86614Y84582
X84074Y84582
X117602Y84582
X120142Y84582
X106172Y94742
X106172Y92202
X111252Y99822
X111252Y102362
X126492Y92202
X126492Y94742
X115062Y84582
X112522Y84582
X109982Y84582
X13970Y105410
X16510Y105410
X2540Y115570
X2540Y113030
X7620Y120650
X7620Y123190
X22860Y113030
X22860Y115570
X11430Y105410
X8890Y105410
X6350Y105410
X39878Y105410
X42418Y105410
X28448Y115570
X28448Y113030
X33528Y120650
X33528Y123190
X48768Y113030
X48768Y115570
X37338Y105410
X34798Y105410
X32258Y105410
X65786Y105410
X68326Y105410
X54356Y115570
X54356Y113030
X59436Y120650
X59436Y123190
X74676Y113030
X74676Y115570
X63246Y105410
X60706Y105410
X58166Y105410
X91694Y105410
X94234Y105410
X80264Y115570
X80264Y113030
X85344Y120650
X85344Y123190
X100584Y113030
X100584Y115570
X89154Y105410
X86614Y105410
X84074Y105410
X117602Y105410
X120142Y105410
X106172Y115570
X106172Y113030
X111252Y120650
X111252Y123190
X126492Y113030
X126492Y115570
X115062Y105410
X112522Y105410
X109982Y105410
T3
X72136Y102870
X62128Y91694
X69063Y87122
X62738Y93472
X67564Y100330
X69596Y97282
X69596Y102997
X63754Y93345
X69215Y90932
X69088Y88265
X88138Y99187
X91821Y93472
X93218Y99187
X82804Y98552
X94996Y89662
X97155Y95631
X94869Y95631
X84963Y91059
X83820Y91059
X82169Y91059
X98044Y102870
X88036Y91694
X94971Y87122
X88646Y93472
X93472Y100330
X95504Y97282
X95504Y102997
X89662Y93345
X95123Y90932
X94996Y88265
X114046Y99187
X117729Y93472
X119126Y99187
X108712Y98552
X120904Y89662
X123063Y95631
X120777Y95631
X110871Y91059
X109728Y91059
X108077Y91059
X123952Y102870
X113944Y91694
X120879Y87122
X114554Y93472
X119380Y100330
X121412Y97282
X121412Y102997
X115570Y93345
X121031Y90932
X120904Y88265
X10414Y120015
X14097Y114300
X15494Y120015
X5080Y119380
X17272Y110490
X19431Y116459
X17145Y116459
X7239Y111887
X6096Y111887
X4445Y111887
X20320Y123698
X10312Y112522
X17247Y107950
X10922Y114300
X15748Y121158
X17780Y118110
X17780Y123825
X11938Y114173
X17399Y111760
X17272Y109093
X36322Y120015
X40005Y114300
X41402Y120015
X30988Y119380
X43180Y110490
X36220Y29210
X43053Y116459
X33147Y111887
X32004Y111887
X30353Y111887
X46228Y123698
X36220Y112522
X43155Y107950
X36830Y114300
X41656Y121158
X43688Y118110
X43688Y123825
X37846Y114173
X43307Y111760
X43180Y109093
X62230Y120015
X65913Y114300
X67310Y120015
X56896Y119380
X69088Y110490
X71247Y116459
X68961Y116459
X59055Y111887
X57912Y111887
X56261Y111887
X72136Y123698
X62128Y112522
X69063Y107950
X62738Y114300
X67564Y121158
X69596Y118110
X69596Y123825
X63754Y114173
X69215Y111760
X69088Y109093
X88138Y120015
X91821Y114300
X93218Y120015
X82804Y119380
X94996Y110490
X97155Y116459
X94869Y116459
X84963Y111887
X83820Y111887
X82169Y111887
X98044Y123698
X88036Y112522
X94971Y107950
X88646Y114300
X93472Y121158
X95504Y118110
X95504Y123825
X89662Y114173
X95123Y111760
X94996Y109093
X114046Y120015
X117729Y114300
X119126Y120015
X108712Y119380
X120904Y110490
X123063Y116459
X120777Y116459
X110871Y111887
X109728Y111887
X108077Y111887
X123952Y123698
X113944Y112522
X120879Y107950
X114554Y114300
X119380Y121158
X121412Y118110
X121412Y123825
X115570Y114173
X121031Y111760
X120904Y109093
X10414Y15875
X14097Y10160
X15494Y15875
X5080Y15240
X17272Y6350
X19431Y12319
X17145Y12319
X7239Y7747
X6096Y7747
X4445Y7747
X20320Y19558
X10312Y8382
X17247Y3810
X10922Y10160
X15748Y17018
X17780Y13970
X17780Y19685
X11938Y10033
X17399Y7620
X17272Y4953
X36322Y15875
X40005Y10160
X41402Y15875
X30988Y15240
X43180Y6350
X45339Y12319
X43053Y12319
X33147Y7747
X32004Y7747
X30353Y7747
X46228Y19558
X36220Y8382
X43155Y3810
X36830Y10160
X41656Y17018
X43688Y13970
X43688Y19685
X37846Y10033
X43307Y7620
X43180Y4953
X62230Y15875
X65913Y10160
X67310Y15875
X56896Y15240
X69088Y6350
X71247Y12319
X68961Y12319
X59055Y7747
X57912Y7747
X56261Y7747
X72136Y19558
X62128Y8382
X69063Y3810
X62738Y10160
X67564Y17018
X69596Y13970
X45339Y116459
X69596Y19685
X63754Y10033
X69215Y7620
X69088Y4953
X88138Y15875
X91821Y10160
X93218Y15875
X82804Y15240
X94996Y6350
X97155Y12319
X94869Y12319
X84963Y7747
X83820Y7747
X82169Y7747
X98044Y19558
X88036Y8382
X94971Y3810
X88646Y10160
X93472Y17018
X95504Y13970
X95504Y19685
X89662Y10033
X95123Y7620
X94996Y4953
X114046Y15875
X117729Y10160
X119126Y15875
X108712Y15240
X120904Y6350
X123063Y12319
X120777Y12319
X110871Y7747
X109728Y7747
X108077Y7747
X123952Y19558
X113944Y8382
X120879Y3810
X114554Y10160
X119380Y17018
X121412Y13970
X121412Y19685
X115570Y10033
X121031Y7620
X120904Y4953
X10414Y36703
X14097Y30988
X15494Y36703
X5080Y36068
X17272Y27178
X19431Y33147
X17145Y33147
X7239Y28575
X6096Y28575
X4445Y28575
X20320Y40386
X10312Y29210
X17247Y24638
X10922Y30988
X15748Y37846
X17780Y34798
X17780Y40513
X11938Y30861
X17399Y28448
X17272Y25781
X36322Y36703
X40005Y30988
X41402Y36703
X30988Y36068
X43180Y27178
X45339Y33147
X43053Y33147
X33147Y28575
X32004Y28575
X30353Y28575
X46228Y40386
X43155Y24638
X36830Y30988
X41656Y37846
X43688Y34798
X43688Y40513
X37846Y30861
X43307Y28448
X43180Y25781
X62230Y36703
X65913Y30988
X67310Y36703
X56896Y36068
X69088Y27178
X71247Y33147
X68961Y33147
X59055Y28575
X57912Y28575
X56261Y28575
X72136Y40386
X62128Y29210
X69063Y24638
X62738Y30988
X67564Y37846
X69596Y34798
X69596Y40513
X63754Y30861
X69215Y28448
X69088Y25781
X88138Y36703
X91821Y30988
X93218Y36703
X82804Y36068
X94996Y27178
X97155Y33147
X94869Y33147
X84963Y28575
X83820Y28575
X82169Y28575
X98044Y40386
X88036Y29210
X94971Y24638
X88646Y30988
X93472Y37846
X95504Y34798
X95504Y40513
X89662Y30861
X95123Y28448
X94996Y25781
X114046Y36703
X117729Y30988
X119126Y36703
X108712Y36068
X120904Y27178
X123063Y33147
X120777Y33147
X110871Y28575
X109728Y28575
X108077Y28575
X123952Y40386
X113944Y29210
X120879Y24638
X114554Y30988
X119380Y37846
X121412Y34798
X121412Y40513
X115570Y30861
X121031Y28448
X120904Y25781
X10414Y57531
X14097Y51816
X15494Y57531
X5080Y56896
X17272Y48006
X19431Y53975
X17145Y53975
X7239Y49403
X6096Y49403
X4445Y49403
X20320Y61214
X10312Y50038
X17247Y45466
X10922Y51816
X15748Y58674
X17780Y55626
X17780Y61341
X11938Y51689
X17399Y49276
X17272Y46609
X36322Y57531
X40005Y51816
X41402Y57531
X30988Y56896
X43180Y48006
X45339Y53975
X43053Y53975
X33147Y49403
X32004Y49403
X30353Y49403
X46228Y61214
X36220Y50038
X43155Y45466
X36830Y51816
X41656Y58674
X43688Y55626
X43688Y61341
X37846Y51689
X43307Y49276
X43180Y46609
X62230Y57531
X65913Y51816
X67310Y57531
X56896Y56896
X69088Y48006
X71247Y53975
X68961Y53975
X59055Y49403
X57912Y49403
X56261Y49403
X72136Y61214
X62128Y50038
X69063Y45466
X62738Y51816
X67564Y58674
X69596Y55626
X69596Y61341
X63754Y51689
X69215Y49276
X69088Y46609
X88138Y57531
X91821Y51816
X93218Y57531
X82804Y56896
X94996Y48006
X97155Y53975
X94869Y53975
X84963Y49403
X83820Y49403
X82169Y49403
X98044Y61214
X88036Y50038
X94971Y45466
X88646Y51816
X93472Y58674
X95504Y55626
X95504Y61341
X89662Y51689
X95123Y49276
X94996Y46609
X114046Y57531
X117729Y51816
X119126Y57531
X108712Y56896
X120904Y48006
X123063Y53975
X120777Y53975
X110871Y49403
X109728Y49403
X108077Y49403
X123952Y61214
X113944Y50038
X120879Y45466
X114554Y51816
X119380Y58674
X121412Y55626
X121412Y61341
X115570Y51689
X121031Y49276
X120904Y46609
X10414Y78359
X14097Y72644
X15494Y78359
X5080Y77724
X17272Y68834
X19431Y74803
X17145Y74803
X7239Y70231
X6096Y70231
X4445Y70231
X20320Y82042
X10312Y70866
X17247Y66294
X10922Y72644
X15748Y79502
X17780Y76454
X17780Y82169
X11938Y72517
X119380Y79502
X17399Y70104
X17272Y67437
X36322Y78359
X40005Y72644
X41402Y78359
X30988Y77724
X43180Y68834
X45339Y74803
X43053Y74803
X33147Y70231
X32004Y70231
X30353Y70231
X46228Y82042
X36220Y70866
X43155Y66294
X36830Y72644
X41656Y79502
X43688Y76454
X43688Y82169
X37846Y72517
X43307Y70104
X43180Y67437
X62230Y78359
X65913Y72644
X67310Y78359
X56896Y77724
X69088Y68834
X71247Y74803
X68961Y74803
X59055Y70231
X57912Y70231
X56261Y70231
X72136Y82042
X62128Y70866
X69063Y66294
X62738Y72644
X67564Y79502
X69596Y76454
X69596Y82169
X63754Y72517
X69215Y70104
X69088Y67437
X88138Y78359
X91821Y72644
X93218Y78359
X82804Y77724
X94996Y68834
X97155Y74803
X94869Y74803
X84963Y70231
X83820Y70231
X82169Y70231
X98044Y82042
X88036Y70866
X94971Y66294
X88646Y72644
X93472Y79502
X95504Y76454
X95504Y82169
X89662Y72517
X95123Y70104
X94996Y67437
X114046Y78359
X117729Y72644
X119126Y78359
X108712Y77724
X120904Y68834
X123063Y74803
X120777Y74803
X110871Y70231
X109728Y70231
X108077Y70231
X123952Y82042
X113944Y70866
X120879Y66294
X114554Y72644
X121412Y76454
X121412Y82169
X115570Y72517
X121031Y70104
X120904Y67437
X10414Y99187
X14097Y93472
X15494Y99187
X5080Y98552
X17272Y89662
X19431Y95631
X17145Y95631
X7239Y91059
X6096Y91059
X4445Y91059
X20320Y102870
X10312Y91694
X17247Y87122
X10922Y93472
X15748Y100330
X17780Y97282
X17780Y102997
X11938Y93345
X17399Y90932
X17272Y88265
X36322Y99187
X40005Y93472
X41402Y99187
X30988Y98552
X43180Y89662
X45339Y95631
X43053Y95631
X33147Y91059
X32004Y91059
X30353Y91059
X46228Y102870
X36220Y91694
X43155Y87122
X36830Y93472
X41656Y100330
X43688Y97282
X43688Y102997
X37846Y93345
X43307Y90932
X43180Y88265
X62230Y99187
X65913Y93472
X67310Y99187
X56896Y98552
X69088Y89662
X71247Y95631
X68961Y95631
X59055Y91059
X57912Y91059
X56261Y91059
M30